<?xml version="1.0" encoding="iso-8859-1"?>
<!-- Generator: Adobe Illustrator 19.0.0, SVG Export Plug-In . SVG Version: 6.00 Build 0)  -->
<svg xmlns="http://www.w3.org/2000/svg" xmlns:xlink="http://www.w3.org/1999/xlink" version="1.1" id="Capa_1" x="0px" y="0px" viewBox="0 0 512 512" style="enable-background:new 0 0 512 512;" xml:space="preserve" width="512px" height="512px">
<g>
	<g>
		<path d="M192.563,261.139c0-1.216,0.043-2.421,0.111-3.62c-6.289-3.656-13.519-5.764-21.099-5.764H54.987    c-22.157,0-41.326,17.99-42.73,40.103L0,484.966h168.993V369.474c0-28.728,19.611-52.953,46.148-60.012    C201.35,297.876,192.563,280.517,192.563,261.139z" fill="#FCFAFA"/>
	</g>
</g>
<g>
	<g>
		<path d="M113.28,67.994c-30.647,0-55.58,24.933-55.58,55.58v96.346h111.16v-96.346C168.86,92.927,143.927,67.994,113.28,67.994z" fill="#FCFAFA"/>
	</g>
</g>
<g>
	<g>
		<path d="M500.198,194.518c-8.161-8.578-19.176-13.301-31.016-13.301H332.315c-11.84,0-22.855,4.723-31.016,13.301    c-4.196,4.409-7.328,9.524-9.311,15.058c16.189,11.436,26.791,30.279,26.791,51.562c0,19.379-8.787,36.737-22.578,48.323    c26.536,7.06,46.148,31.284,46.148,60.013v115.492h156.746l12.85-258.81C512.532,214.331,508.361,203.094,500.198,194.518z" fill="#FCFAFA"/>
	</g>
</g>
<g>
	<g>
		<path d="M400.75,27.034c-35.108,0-63.669,28.561-63.669,63.669c0,35.106,28.562,63.668,63.669,63.668    c35.106,0,63.668-28.562,63.668-63.668C464.418,55.596,435.856,27.034,400.75,27.034z" fill="#FCFAFA"/>
	</g>
</g>
<g>
	<g>
		<path d="M280.25,327.443h-49.159c-23.176,0-42.031,18.855-42.031,42.031v115.492h37.5h75.842h19.879V369.474    C322.281,346.298,303.427,327.443,280.25,327.443z" fill="#FCFAFA"/>
	</g>
</g>
<g>
	<g>
		<path d="M255.671,218.1c-23.732,0-43.04,19.307-43.04,43.039c0,23.733,19.308,43.04,43.04,43.04s43.04-19.308,43.04-43.04    S279.403,218.1,255.671,218.1z" fill="#FCFAFA"/>
	</g>
</g>
<g>
</g>
<g>
</g>
<g>
</g>
<g>
</g>
<g>
</g>
<g>
</g>
<g>
</g>
<g>
</g>
<g>
</g>
<g>
</g>
<g>
</g>
<g>
</g>
<g>
</g>
<g>
</g>
<g>
</g>
</svg>
