<?xml version="1.0" encoding="iso-8859-1"?>
<!-- Generator: Adobe Illustrator 19.0.0, SVG Export Plug-In . SVG Version: 6.00 Build 0)  -->
<svg version="1.1" id="Capa_1" xmlns="http://www.w3.org/2000/svg" xmlns:xlink="http://www.w3.org/1999/xlink" x="0px" y="0px"
	 viewBox="0 0 468.293 468.293" style="enable-background:new 0 0 468.293 468.293;" xml:space="preserve">
<path style="fill:#3EA69B;" d="M282.349,156.096v224.718c0,3.309-2.685,5.994-5.994,5.994H89.038l-36.215,40.523
	c-3.622,3.996-10.303,1.623-10.49-3.746l-1.561-36.777H5.994c-3.309,0-5.994-2.685-5.994-5.994V162.153
	c0-3.372,2.685-6.056,5.994-6.056H282.349z"/>
<g>
	<circle style="fill:#E1E6E9;" cx="61.902" cy="271.471" r="27.367"/>
	<circle style="fill:#E1E6E9;" cx="141.424" cy="271.471" r="27.367"/>
	<circle style="fill:#E1E6E9;" cx="220.466" cy="271.471" r="27.367"/>
</g>
<path style="fill:#D15241;" d="M468.293,156.221c0,39.337-27.036,74.178-68.495,95.407v36.027c0,4.558-4.808,7.43-8.804,5.37
	l-44.769-23.29c-13.3,2.497-27.223,3.809-41.585,3.809c-50.95,0-96.468-16.671-126.439-42.833c-2.872-2.56-5.682-5.12-8.242-7.867
	c-1.186-1.186-2.248-2.373-3.309-3.559c-0.999-1.061-1.936-2.123-2.747-3.247c-0.999-1.186-1.936-2.31-2.81-3.497
	c-0.25-0.25-0.437-0.499-0.562-0.749c-1.124-1.373-2.123-2.81-3.06-4.246c-0.187-0.25-0.375-0.437-0.437-0.687
	c-0.874-1.249-1.686-2.56-2.498-3.809c-2.373-3.871-4.433-7.867-6.181-11.926c-0.812-1.811-1.561-3.684-2.186-5.557
	c-0.562-1.561-1.061-3.059-1.498-4.62c-0.375-0.999-0.624-2.06-0.874-3.122c-0.188-0.562-0.313-1.186-0.437-1.748
	c-0.313-0.999-0.5-2.061-0.687-3.122c-0.312-1.561-0.624-3.122-0.812-4.745c-0.187-1.249-0.375-2.56-0.437-3.871
	c-0.125-0.937-0.188-1.873-0.25-2.872c-0.125-1.748-0.187-3.497-0.187-5.245c0-64.749,73.303-117.261,163.652-117.261
	c2.123,0,4.308,0,6.431,0.125c1.124,0,2.31,0.063,3.497,0.063c0.312,0.063,0.624,0.063,0.999,0.063
	c1.936,0.125,3.871,0.187,5.807,0.375c2.747,0.187,5.495,0.437,8.18,0.749c2.435,0.25,4.808,0.562,7.18,0.874
	c2.248,0.313,4.433,0.687,6.618,1.062c1.186,0.187,2.435,0.437,3.684,0.687c2.622,0.5,5.182,0.999,7.742,1.623
	c2.061,0.437,4.121,0.936,6.119,1.498c0.375,0.063,0.687,0.187,0.999,0.25c2.185,0.562,4.308,1.186,6.431,1.873
	c1.374,0.375,2.685,0.812,4.059,1.311c1.249,0.375,2.497,0.812,3.746,1.249c3.434,1.124,6.744,2.435,9.99,3.809
	c1.186,0.5,2.372,0.999,3.559,1.498c11.864,5.183,22.79,11.426,32.406,18.545c2.186,1.623,4.308,3.247,6.306,4.933
	c1.124,0.937,2.248,1.873,3.309,2.81c1.061,0.937,2.123,1.936,3.122,2.872c0.874,0.812,1.686,1.623,2.497,2.435
	c0.375,0.375,0.812,0.749,1.124,1.124c1.811,1.811,3.497,3.622,5.12,5.495C459.239,112.264,468.293,133.494,468.293,156.221z"/>
<g>
	<path style="fill:#E1E6E9;" d="M225.364,128.779c-15.115,0-27.367,12.253-27.367,27.367c0,15.115,12.252,27.368,27.367,27.368
		c15.114,0,27.367-12.253,27.367-27.368C252.731,141.032,240.478,128.779,225.364,128.779z"/>
	<path style="fill:#E1E6E9;" d="M304.866,128.779c-15.115,0-27.368,12.253-27.368,27.367c0,15.115,12.253,27.368,27.368,27.368
		c15.114,0,27.367-12.253,27.367-27.368C332.233,141.032,319.98,128.779,304.866,128.779z"/>
	<path style="fill:#E1E6E9;" d="M383.927,128.779c-15.114,0-27.367,12.253-27.367,27.367c0,15.115,12.253,27.368,27.367,27.368
		c15.115,0,27.368-12.253,27.368-27.368C411.295,141.032,399.042,128.779,383.927,128.779z"/>
</g>
<g>
</g>
<g>
</g>
<g>
</g>
<g>
</g>
<g>
</g>
<g>
</g>
<g>
</g>
<g>
</g>
<g>
</g>
<g>
</g>
<g>
</g>
<g>
</g>
<g>
</g>
<g>
</g>
<g>
</g>
</svg>
